# xmcd
#
# Track frame offsets: 
#        150
#        20274
#        32057
#        45675
#        62849
#        76146
#        91987
#        106622
#        129269
#        144000
#        160853
#        181751
#        194965
#        210053
#        230288
#        242955
#        268519
#        279979
#
# Disc length: 3893 seconds
#
# Revision: 5
# Processed by: cddbd v1.5.1PL0 Copyright (c) Steve Scherf et al.
# Submitted via: ExactAudioCopy v0.95a5
#
DISCID=e00f3312
DTITLE=Gary P. Nunn - What I Like About Texas (Greatest Hits)
DYEAR=1997
DGENRE=Country
TTITLE0=What I Like About Texas
TTITLE1=Austin Pickers
TTITLE2=Nobody But Me
TTITLE3=The Old Rocking Chair
TTITLE4=Think I'll Go To Mexico
TTITLE5=Roadtrip
TTITLE6=Guadalupe Days
TTITLE7=Friends For Life
TTITLE8=The Chili Song
TTITLE9=Public Domain
TTITLE10=Terlingua Sky
TTITLE11=Corona Con Lima
TTITLE12=Why Don't You Meet Me Down In Corpus
TTITLE13=My Kind Of Day On Padre
TTITLE14=Macho Man From Taco Land
TTITLE15=London Homesick Blues/Home With The Armadillo
TTITLE16=(I've Got) A Long, Long Way To Go
TTITLE17=Take The A-O Train (Instrumental)
EXTD=YEAR: 1997 ID3G:   2
EXTT0=
EXTT1=
EXTT2=
EXTT3=
EXTT4=
EXTT5=
EXTT6=
EXTT7=
EXTT8=
EXTT9=
EXTT10=
EXTT11=
EXTT12=
EXTT13=
EXTT14=
EXTT15=
EXTT16=
EXTT17=
PLAYORDER=
